<?xml version="1.0" encoding="UTF-8" standalone="no"?>
<!-- Created with Inkscape (http://www.inkscape.org/) -->

<svg
   width="32"
   height="32"
   viewBox="0 0 32 32"
   version="1.1"
   id="svg1"
   sodipodi:docname="eays.svg"
   inkscape:version="1.3.2 (091e20e, 2023-11-25, custom)"
   xmlns:inkscape="http://www.inkscape.org/namespaces/inkscape"
   xmlns:sodipodi="http://sodipodi.sourceforge.net/DTD/sodipodi-0.dtd"
   xmlns="http://www.w3.org/2000/svg"
   xmlns:svg="http://www.w3.org/2000/svg">
  <sodipodi:namedview
     id="namedview1"
     pagecolor="#ffffff"
     bordercolor="#000000"
     borderopacity="0.25"
     inkscape:showpageshadow="2"
     inkscape:pageopacity="0.0"
     inkscape:pagecheckerboard="0"
     inkscape:deskcolor="#d1d1d1"
     inkscape:document-units="px"
     inkscape:zoom="12.703125"
     inkscape:cx="38.297663"
     inkscape:cy="14.99631"
     inkscape:window-width="1920"
     inkscape:window-height="1009"
     inkscape:window-x="-8"
     inkscape:window-y="-8"
     inkscape:window-maximized="1"
     inkscape:current-layer="layer1" />
  <defs
     id="defs1" />
  <g
     inkscape:label="Layer 1"
     inkscape:groupmode="layer"
     id="layer1">
    <path
       style="fill:#000000;fill-opacity:0.183871;stroke:#545454;stroke-width:2.09222e-14;stroke-linecap:square;stroke-linejoin:round;paint-order:stroke fill markers"
       id="path1"
       sodipodi:type="arc"
       sodipodi:cx="15.742827"
       sodipodi:cy="13.035012"
       sodipodi:rx="2.5127759e-14"
       sodipodi:ry="18.134899"
       sodipodi:start="0.090624799"
       sodipodi:end="0.047465063"
       sodipodi:open="true"
       sodipodi:arc-type="arc"
       d="M 28.112715,17.130233 A 12.354435,12.464399 0 0 1 14.823711,28.426894 12.354435,12.464399 0 0 1 3.4839795,15.142275 12.354435,12.464399 0 0 1 16.528279,3.5589399 12.354435,12.464399 0 0 1 28.149499,16.593597" />
    <path
       style="fill:#ffffff;fill-opacity:1;stroke:#ffffff;stroke-width:0;stroke-linecap:square;stroke-linejoin:round;stroke-dasharray:none;paint-order:stroke fill markers;stroke-opacity:1"
       id="path2"
       sodipodi:type="arc"
       sodipodi:cx="16.017317"
       sodipodi:cy="16.003401"
       sodipodi:rx="15.989485"
       sodipodi:ry="16.003401"
       sodipodi:start="0.090624799"
       sodipodi:end="0.047465063"
       sodipodi:open="true"
       sodipodi:arc-type="arc"
       d="M 31.941187,17.451721 A 15.989485,16.003401 0 0 1 14.742154,31.955829 15.989485,16.003401 0 0 1 0.06592945,14.899325 15.989485,16.003401 0 0 1 16.948257,0.02714725 15.989485,16.003401 0 0 1 31.988793,16.762718" />
    <path
       style="fill:#000000;fill-opacity:1;stroke:#000000;stroke-width:0;stroke-linecap:square;stroke-linejoin:round;stroke-dasharray:none;stroke-opacity:1;paint-order:stroke fill markers"
       id="path3"
       sodipodi:type="arc"
       sodipodi:cx="22.46977"
       sodipodi:cy="15.685116"
       sodipodi:rx="8.2460022"
       sodipodi:ry="7.5375152"
       sodipodi:start="0.090624799"
       sodipodi:end="0.047465063"
       sodipodi:open="true"
       sodipodi:arc-type="arc"
       d="M 30.681934,16.367267 A 8.2460022,7.5375152 0 0 1 21.812151,23.198623 8.2460022,7.5375152 0 0 1 14.243416,15.165102 8.2460022,7.5375152 0 0 1 22.94987,8.1603869 8.2460022,7.5375152 0 0 1 30.706486,16.04275" />
  </g>
</svg>
